<svg width="395" height="116" viewBox="0 0 395 116" fill="none" xmlns="http://www.w3.org/2000/svg">
<path d="M127.659 51.5547L86.1537 55.703L46.7946 59.6893L59.8154 111.469C60.2637 113.77 62.1094 115.281 64.542 115.281C65.827 115.281 66.9987 114.797 67.8844 114L131.276 60.4656C132.442 59.5503 133.191 58.1282 133.191 56.5313C133.191 53.7699 130.421 51.5547 127.659 51.5547Z" fill="#3EE4FF"/>
<path d="M72.7529 3.78127L86.1537 55.703L5.69822 63.8515C2.9368 63.8515 0.479004 61.6468 0.479004 58.8853C0.479004 57.4454 1.08768 56.1476 2.06178 55.2353L2.05766 55.2266C29.3467 32.5 65.0949 2.19345 65.0949 2.19345C65.0949 2.19345 66.8099 0.875031 68.1749 0.875031C70.4192 0.875031 72.1339 1.5621 72.7529 3.78127Z" fill="#00FFCE"/>
<path d="M86.1592 55.707C83.4404 55.9726 46.792 59.6835 46.792 59.6835L47.7529 63.5C47.7529 63.5 86.1592 55.9453 86.1592 55.707Z" fill="#1F7565"/>
<path d="M147.779 79.3982C147.233 79.3982 146.768 79.2342 146.385 78.9062C146.057 78.5236 145.893 78.0589 145.893 77.5122V74.6422C145.893 74.1502 146.003 73.6856 146.221 73.2482C146.495 72.8109 146.768 72.4009 147.041 72.0182L169.673 43.2362H148.517C147.971 43.2362 147.506 43.0722 147.123 42.7442C146.795 42.4162 146.631 41.9516 146.631 41.3502V38.6442C146.631 38.0976 146.795 37.6602 147.123 37.3322C147.506 36.9496 147.971 36.7582 148.517 36.7582C159.917 36.7582 166.309 36.7582 177.709 36.7582C178.256 36.7582 178.693 36.9496 179.021 37.3322C179.404 37.6602 179.595 38.0976 179.595 38.6442C179.595 39.8291 179.595 40.4934 179.595 41.6782C179.595 42.1702 179.459 42.6076 179.185 42.9902C178.967 43.3729 178.721 43.7829 178.447 44.2202L156.061 72.9202H178.283C178.83 72.9202 179.267 73.0842 179.595 73.4122C179.978 73.7402 180.169 74.2049 180.169 74.8062V77.5122C180.169 78.0589 179.978 78.5236 179.595 78.9062C179.267 79.2342 178.83 79.3982 178.283 79.3982H147.779Z" fill="#040F23"/>
<path d="M204.714 80.2182C199.083 80.2182 194.6 78.4962 191.266 75.0522C187.931 71.5536 186.1 66.7976 185.772 60.7842C185.717 60.0736 185.69 59.1716 185.69 58.0782C185.69 56.9302 185.717 56.0009 185.772 55.2902C185.99 51.4089 186.892 48.0196 188.478 45.1222C190.063 42.1702 192.222 39.9016 194.956 38.3162C197.744 36.7309 200.996 35.9382 204.714 35.9382C208.868 35.9382 212.34 36.8129 215.128 38.5622C217.97 40.3116 220.13 42.7989 221.606 46.0242C223.082 49.2496 223.82 53.0216 223.82 57.3402V58.7342C223.82 59.3356 223.628 59.8002 223.246 60.1282C222.918 60.4562 222.48 60.6202 221.934 60.6202H193.562C193.562 60.6749 193.562 60.7842 193.562 60.9482C193.562 61.1122 193.562 61.2489 193.562 61.3582C193.671 63.5996 194.163 65.7042 195.038 67.6722C195.912 69.5856 197.17 71.1436 198.81 72.3462C200.45 73.5489 202.418 74.1502 204.714 74.1502C206.682 74.1502 208.322 73.8496 209.634 73.2482C210.946 72.6469 212.012 71.9909 212.832 71.2802C213.652 70.5149 214.198 69.9409 214.472 69.5582C214.964 68.8476 215.346 68.4376 215.62 68.3282C215.893 68.1642 216.33 68.0822 216.932 68.0822H220.868C221.414 68.0822 221.852 68.2462 222.18 68.5742C222.562 68.8476 222.726 69.2576 222.672 69.8042C222.617 70.6242 222.18 71.6356 221.36 72.8382C220.54 73.9862 219.364 75.1342 217.834 76.2822C216.303 77.4302 214.444 78.3869 212.258 79.1522C210.071 79.8629 207.556 80.2182 204.714 80.2182ZM193.562 54.9622H216.03V54.7162C216.03 52.2562 215.565 50.0696 214.636 48.1562C213.761 46.2429 212.476 44.7396 210.782 43.6462C209.087 42.4982 207.064 41.9242 204.714 41.9242C202.363 41.9242 200.34 42.4982 198.646 43.6462C197.006 44.7396 195.748 46.2429 194.874 48.1562C193.999 50.0696 193.562 52.2562 193.562 54.7162V54.9622Z" fill="#040F23"/>
<path d="M231.949 79.3982C231.403 79.3982 230.938 79.2342 230.555 78.9062C230.227 78.5236 230.063 78.0589 230.063 77.5122V38.6442C230.063 38.0976 230.227 37.6602 230.555 37.3322C230.938 36.9496 231.403 36.7582 231.949 36.7582H235.803C236.35 36.7582 236.787 36.9496 237.115 37.3322C237.498 37.6602 237.689 38.0976 237.689 38.6442V42.2522C239.111 40.3936 240.887 38.8902 243.019 37.7422C245.206 36.5396 247.994 35.9382 251.383 35.9382C254.937 35.9382 257.943 36.7309 260.403 38.3162C262.918 39.8469 264.804 42.0062 266.061 44.7942C267.319 47.5276 267.947 50.7256 267.947 54.3882V77.5122C267.947 78.0589 267.783 78.5236 267.455 78.9062C267.127 79.2342 266.69 79.3982 266.143 79.3982H262.043C261.497 79.3982 261.032 79.2342 260.649 78.9062C260.321 78.5236 260.157 78.0589 260.157 77.5122V54.7982C260.157 50.9716 259.228 47.9922 257.369 45.8602C255.511 43.6736 252.777 42.5802 249.169 42.5802C245.78 42.5802 243.047 43.6736 240.969 45.8602C238.947 47.9922 237.935 50.9716 237.935 54.7982V77.5122C237.935 78.0589 237.744 78.5236 237.361 78.9062C237.033 79.2342 236.596 79.3982 236.049 79.3982H231.949Z" fill="#040F23"/>
<path d="M293.431 80.2182C289.277 80.2182 285.805 79.4256 283.017 77.8402C280.229 76.2549 278.097 74.0682 276.621 71.2802C275.145 68.4376 274.325 65.2122 274.161 61.6042C274.107 60.6749 274.079 59.4996 274.079 58.0782C274.079 56.6022 274.107 55.4269 274.161 54.5522C274.325 50.8896 275.145 47.6642 276.621 44.8762C278.152 42.0882 280.311 39.9016 283.099 38.3162C285.887 36.7309 289.331 35.9382 293.431 35.9382C297.531 35.9382 300.975 36.7309 303.763 38.3162C306.551 39.9016 308.683 42.0882 310.159 44.8762C311.69 47.6642 312.537 50.8896 312.701 54.5522C312.756 55.4269 312.783 56.6022 312.783 58.0782C312.783 59.4996 312.756 60.6749 312.701 61.6042C312.537 65.2122 311.717 68.4376 310.241 71.2802C308.765 74.0682 306.633 76.2549 303.845 77.8402C301.057 79.4256 297.586 80.2182 293.431 80.2182ZM293.431 73.9042C296.821 73.9042 299.527 72.8382 301.549 70.7062C303.572 68.5196 304.665 65.3489 304.829 61.1942C304.884 60.3742 304.911 59.3356 304.911 58.0782C304.911 56.8209 304.884 55.7822 304.829 54.9622C304.665 50.8076 303.572 47.6642 301.549 45.5322C299.527 43.3456 296.821 42.2522 293.431 42.2522C290.042 42.2522 287.309 43.3456 285.231 45.5322C283.209 47.6642 282.143 50.8076 282.033 54.9622C281.979 55.7822 281.951 56.8209 281.951 58.0782C281.951 59.3356 281.979 60.3742 282.033 61.1942C282.143 65.3489 283.209 68.5196 285.231 70.7062C287.309 72.8382 290.042 73.9042 293.431 73.9042Z" fill="#040F23"/>
<path d="M333.459 79.3982C332.639 79.3982 331.983 79.2069 331.491 78.8242C331.054 78.4416 330.699 77.9496 330.425 77.3482L315.255 39.3002C315.146 39.0269 315.091 38.7536 315.091 38.4802C315.091 37.9882 315.255 37.5782 315.583 37.2502C315.911 36.9222 316.321 36.7582 316.813 36.7582H320.749C321.351 36.7582 321.815 36.9222 322.143 37.2502C322.471 37.5782 322.663 37.8789 322.717 38.1522L335.263 70.4602L347.727 38.1522C347.837 37.8789 348.028 37.5782 348.301 37.2502C348.629 36.9222 349.094 36.7582 349.695 36.7582H353.713C354.151 36.7582 354.533 36.9222 354.861 37.2502C355.244 37.5782 355.435 37.9882 355.435 38.4802C355.435 38.7536 355.381 39.0269 355.271 39.3002L340.019 77.3482C339.801 77.9496 339.445 78.4416 338.953 78.8242C338.516 79.2069 337.86 79.3982 336.985 79.3982H333.459Z" fill="#040F23"/>
<path d="M372.21 80.2182C369.477 80.2182 366.989 79.6716 364.748 78.5782C362.507 77.4849 360.703 76.0089 359.336 74.1502C357.969 72.2916 357.286 70.1869 357.286 67.8362C357.286 64.0642 358.817 61.0576 361.878 58.8162C364.939 56.5749 368.93 55.0989 373.85 54.3882L386.068 52.6662V50.2882C386.068 47.6642 385.303 45.6142 383.772 44.1382C382.296 42.6622 379.863 41.9242 376.474 41.9242C374.014 41.9242 372.019 42.4162 370.488 43.4002C369.012 44.3842 367.973 45.6416 367.372 47.1722C367.044 47.9922 366.47 48.4022 365.65 48.4022H361.96C361.359 48.4022 360.894 48.2382 360.566 47.9102C360.293 47.5276 360.156 47.0902 360.156 46.5982C360.156 45.7782 360.457 44.7669 361.058 43.5642C361.714 42.3616 362.698 41.1862 364.01 40.0382C365.322 38.8902 366.989 37.9336 369.012 37.1682C371.089 36.3482 373.604 35.9382 376.556 35.9382C379.836 35.9382 382.597 36.3756 384.838 37.2502C387.079 38.0702 388.829 39.1909 390.086 40.6122C391.398 42.0336 392.327 43.6462 392.874 45.4502C393.475 47.2542 393.776 49.0856 393.776 50.9442V77.5122C393.776 78.0589 393.585 78.5236 393.202 78.9062C392.874 79.2342 392.437 79.3982 391.89 79.3982H388.118C387.517 79.3982 387.052 79.2342 386.724 78.9062C386.396 78.5236 386.232 78.0589 386.232 77.5122V73.9862C385.521 74.9702 384.565 75.9542 383.362 76.9382C382.159 77.8676 380.656 78.6602 378.852 79.3162C377.048 79.9176 374.834 80.2182 372.21 80.2182ZM373.932 74.0682C376.173 74.0682 378.223 73.6036 380.082 72.6742C381.941 71.6902 383.389 70.1869 384.428 68.1642C385.521 66.1416 386.068 63.5996 386.068 60.5382V58.2422L376.556 59.6362C372.675 60.1829 369.75 61.1122 367.782 62.4242C365.814 63.6816 364.83 65.2942 364.83 67.2622C364.83 68.7929 365.267 70.0776 366.142 71.1162C367.071 72.1002 368.219 72.8382 369.586 73.3302C371.007 73.8222 372.456 74.0682 373.932 74.0682Z" fill="#040F23"/>
<path d="M147.779 79.3982C147.233 79.3982 146.768 79.2342 146.385 78.9062C146.057 78.5236 145.893 78.0589 145.893 77.5122V74.6422C145.893 74.1502 146.003 73.6856 146.221 73.2482C146.495 72.8109 146.768 72.4009 147.041 72.0182L169.673 43.2362H148.517C147.971 43.2362 147.506 43.0722 147.123 42.7442C146.795 42.4162 146.631 41.9516 146.631 41.3502V38.6442C146.631 38.0976 146.795 37.6602 147.123 37.3322C147.506 36.9496 147.971 36.7582 148.517 36.7582C159.917 36.7582 166.309 36.7582 177.709 36.7582C178.256 36.7582 178.693 36.9496 179.021 37.3322C179.404 37.6602 179.595 38.0976 179.595 38.6442C179.595 39.8291 179.595 40.4934 179.595 41.6782C179.595 42.1702 179.459 42.6076 179.185 42.9902C178.967 43.3729 178.721 43.7829 178.447 44.2202L156.061 72.9202H178.283C178.83 72.9202 179.267 73.0842 179.595 73.4122C179.978 73.7402 180.169 74.2049 180.169 74.8062V77.5122C180.169 78.0589 179.978 78.5236 179.595 78.9062C179.267 79.2342 178.83 79.3982 178.283 79.3982H147.779Z" stroke="#040F23"/>
<path d="M204.714 80.2182C199.083 80.2182 194.6 78.4962 191.266 75.0522C187.931 71.5536 186.1 66.7976 185.772 60.7842C185.717 60.0736 185.69 59.1716 185.69 58.0782C185.69 56.9302 185.717 56.0009 185.772 55.2902C185.99 51.4089 186.892 48.0196 188.478 45.1222C190.063 42.1702 192.222 39.9016 194.956 38.3162C197.744 36.7309 200.996 35.9382 204.714 35.9382C208.868 35.9382 212.34 36.8129 215.128 38.5622C217.97 40.3116 220.13 42.7989 221.606 46.0242C223.082 49.2496 223.82 53.0216 223.82 57.3402V58.7342C223.82 59.3356 223.628 59.8002 223.246 60.1282C222.918 60.4562 222.48 60.6202 221.934 60.6202H193.562C193.562 60.6749 193.562 60.7842 193.562 60.9482C193.562 61.1122 193.562 61.2489 193.562 61.3582C193.671 63.5996 194.163 65.7042 195.038 67.6722C195.912 69.5856 197.17 71.1436 198.81 72.3462C200.45 73.5489 202.418 74.1502 204.714 74.1502C206.682 74.1502 208.322 73.8496 209.634 73.2482C210.946 72.6469 212.012 71.9909 212.832 71.2802C213.652 70.5149 214.198 69.9409 214.472 69.5582C214.964 68.8476 215.346 68.4376 215.62 68.3282C215.893 68.1642 216.33 68.0822 216.932 68.0822H220.868C221.414 68.0822 221.852 68.2462 222.18 68.5742C222.562 68.8476 222.726 69.2576 222.672 69.8042C222.617 70.6242 222.18 71.6356 221.36 72.8382C220.54 73.9862 219.364 75.1342 217.834 76.2822C216.303 77.4302 214.444 78.3869 212.258 79.1522C210.071 79.8629 207.556 80.2182 204.714 80.2182ZM193.562 54.9622H216.03V54.7162C216.03 52.2562 215.565 50.0696 214.636 48.1562C213.761 46.2429 212.476 44.7396 210.782 43.6462C209.087 42.4982 207.064 41.9242 204.714 41.9242C202.363 41.9242 200.34 42.4982 198.646 43.6462C197.006 44.7396 195.748 46.2429 194.874 48.1562C193.999 50.0696 193.562 52.2562 193.562 54.7162V54.9622Z" stroke="#040F23"/>
<path d="M231.949 79.3982C231.403 79.3982 230.938 79.2342 230.555 78.9062C230.227 78.5236 230.063 78.0589 230.063 77.5122V38.6442C230.063 38.0976 230.227 37.6602 230.555 37.3322C230.938 36.9496 231.403 36.7582 231.949 36.7582H235.803C236.35 36.7582 236.787 36.9496 237.115 37.3322C237.498 37.6602 237.689 38.0976 237.689 38.6442V42.2522C239.111 40.3936 240.887 38.8902 243.019 37.7422C245.206 36.5396 247.994 35.9382 251.383 35.9382C254.937 35.9382 257.943 36.7309 260.403 38.3162C262.918 39.8469 264.804 42.0062 266.061 44.7942C267.319 47.5276 267.947 50.7256 267.947 54.3882V77.5122C267.947 78.0589 267.783 78.5236 267.455 78.9062C267.127 79.2342 266.69 79.3982 266.143 79.3982H262.043C261.497 79.3982 261.032 79.2342 260.649 78.9062C260.321 78.5236 260.157 78.0589 260.157 77.5122V54.7982C260.157 50.9716 259.228 47.9922 257.369 45.8602C255.511 43.6736 252.777 42.5802 249.169 42.5802C245.78 42.5802 243.047 43.6736 240.969 45.8602C238.947 47.9922 237.935 50.9716 237.935 54.7982V77.5122C237.935 78.0589 237.744 78.5236 237.361 78.9062C237.033 79.2342 236.596 79.3982 236.049 79.3982H231.949Z" stroke="#040F23"/>
<path d="M293.431 80.2182C289.277 80.2182 285.805 79.4256 283.017 77.8402C280.229 76.2549 278.097 74.0682 276.621 71.2802C275.145 68.4376 274.325 65.2122 274.161 61.6042C274.107 60.6749 274.079 59.4996 274.079 58.0782C274.079 56.6022 274.107 55.4269 274.161 54.5522C274.325 50.8896 275.145 47.6642 276.621 44.8762C278.152 42.0882 280.311 39.9016 283.099 38.3162C285.887 36.7309 289.331 35.9382 293.431 35.9382C297.531 35.9382 300.975 36.7309 303.763 38.3162C306.551 39.9016 308.683 42.0882 310.159 44.8762C311.69 47.6642 312.537 50.8896 312.701 54.5522C312.756 55.4269 312.783 56.6022 312.783 58.0782C312.783 59.4996 312.756 60.6749 312.701 61.6042C312.537 65.2122 311.717 68.4376 310.241 71.2802C308.765 74.0682 306.633 76.2549 303.845 77.8402C301.057 79.4256 297.586 80.2182 293.431 80.2182ZM293.431 73.9042C296.821 73.9042 299.527 72.8382 301.549 70.7062C303.572 68.5196 304.665 65.3489 304.829 61.1942C304.884 60.3742 304.911 59.3356 304.911 58.0782C304.911 56.8209 304.884 55.7822 304.829 54.9622C304.665 50.8076 303.572 47.6642 301.549 45.5322C299.527 43.3456 296.821 42.2522 293.431 42.2522C290.042 42.2522 287.309 43.3456 285.231 45.5322C283.209 47.6642 282.143 50.8076 282.033 54.9622C281.979 55.7822 281.951 56.8209 281.951 58.0782C281.951 59.3356 281.979 60.3742 282.033 61.1942C282.143 65.3489 283.209 68.5196 285.231 70.7062C287.309 72.8382 290.042 73.9042 293.431 73.9042Z" stroke="#040F23"/>
<path d="M333.459 79.3982C332.639 79.3982 331.983 79.2069 331.491 78.8242C331.054 78.4416 330.699 77.9496 330.425 77.3482L315.255 39.3002C315.146 39.0269 315.091 38.7536 315.091 38.4802C315.091 37.9882 315.255 37.5782 315.583 37.2502C315.911 36.9222 316.321 36.7582 316.813 36.7582H320.749C321.351 36.7582 321.815 36.9222 322.143 37.2502C322.471 37.5782 322.663 37.8789 322.717 38.1522L335.263 70.4602L347.727 38.1522C347.837 37.8789 348.028 37.5782 348.301 37.2502C348.629 36.9222 349.094 36.7582 349.695 36.7582H353.713C354.151 36.7582 354.533 36.9222 354.861 37.2502C355.244 37.5782 355.435 37.9882 355.435 38.4802C355.435 38.7536 355.381 39.0269 355.271 39.3002L340.019 77.3482C339.801 77.9496 339.445 78.4416 338.953 78.8242C338.516 79.2069 337.86 79.3982 336.985 79.3982H333.459Z" stroke="#040F23"/>
<path d="M372.21 80.2182C369.477 80.2182 366.989 79.6716 364.748 78.5782C362.507 77.4849 360.703 76.0089 359.336 74.1502C357.969 72.2916 357.286 70.1869 357.286 67.8362C357.286 64.0642 358.817 61.0576 361.878 58.8162C364.939 56.5749 368.93 55.0989 373.85 54.3882L386.068 52.6662V50.2882C386.068 47.6642 385.303 45.6142 383.772 44.1382C382.296 42.6622 379.863 41.9242 376.474 41.9242C374.014 41.9242 372.019 42.4162 370.488 43.4002C369.012 44.3842 367.973 45.6416 367.372 47.1722C367.044 47.9922 366.47 48.4022 365.65 48.4022H361.96C361.359 48.4022 360.894 48.2382 360.566 47.9102C360.293 47.5276 360.156 47.0902 360.156 46.5982C360.156 45.7782 360.457 44.7669 361.058 43.5642C361.714 42.3616 362.698 41.1862 364.01 40.0382C365.322 38.8902 366.989 37.9336 369.012 37.1682C371.089 36.3482 373.604 35.9382 376.556 35.9382C379.836 35.9382 382.597 36.3756 384.838 37.2502C387.079 38.0702 388.829 39.1909 390.086 40.6122C391.398 42.0336 392.327 43.6462 392.874 45.4502C393.475 47.2542 393.776 49.0856 393.776 50.9442V77.5122C393.776 78.0589 393.585 78.5236 393.202 78.9062C392.874 79.2342 392.437 79.3982 391.89 79.3982H388.118C387.517 79.3982 387.052 79.2342 386.724 78.9062C386.396 78.5236 386.232 78.0589 386.232 77.5122V73.9862C385.521 74.9702 384.565 75.9542 383.362 76.9382C382.159 77.8676 380.656 78.6602 378.852 79.3162C377.048 79.9176 374.834 80.2182 372.21 80.2182ZM373.932 74.0682C376.173 74.0682 378.223 73.6036 380.082 72.6742C381.941 71.6902 383.389 70.1869 384.428 68.1642C385.521 66.1416 386.068 63.5996 386.068 60.5382V58.2422L376.556 59.6362C372.675 60.1829 369.75 61.1122 367.782 62.4242C365.814 63.6816 364.83 65.2942 364.83 67.2622C364.83 68.7929 365.267 70.0776 366.142 71.1162C367.071 72.1002 368.219 72.8382 369.586 73.3302C371.007 73.8222 372.456 74.0682 373.932 74.0682Z" stroke="#040F23"/>
<path d="M149.595 91.1734V104.919H147.773V91.1734H149.595Z" fill="#828282"/>
<path d="M155.358 96.8851V104.919H153.611V94.7042H155.263L155.358 96.8851ZM154.942 99.4247L154.216 99.3963C154.222 98.6977 154.326 98.0526 154.527 97.461C154.728 96.8631 155.012 96.3438 155.377 95.9032C155.742 95.4627 156.176 95.1228 156.68 94.8836C157.189 94.6382 157.753 94.5154 158.369 94.5154C158.873 94.5154 159.326 94.5847 159.729 94.7231C160.132 94.8553 160.475 95.0693 160.758 95.3651C161.048 95.6609 161.268 96.0448 161.419 96.5169C161.57 96.9826 161.645 97.5522 161.645 98.2257V104.919H159.889V98.2068C159.889 97.6718 159.811 97.2438 159.653 96.9228C159.496 96.5956 159.266 96.3595 158.964 96.2148C158.662 96.0637 158.291 95.9882 157.85 95.9882C157.416 95.9882 157.019 96.0795 156.661 96.262C156.308 96.4445 156.003 96.6963 155.745 97.0173C155.493 97.3382 155.295 97.7064 155.15 98.1218C155.012 98.5309 154.942 98.9652 154.942 99.4247Z" fill="#828282"/>
<path d="M171.213 102.21C171.213 101.958 171.156 101.725 171.043 101.511C170.936 101.291 170.712 101.093 170.373 100.916C170.039 100.734 169.536 100.576 168.862 100.444C168.296 100.325 167.783 100.183 167.323 100.019C166.87 99.8558 166.483 99.6575 166.162 99.4247C165.847 99.1918 165.605 98.918 165.435 98.6033C165.265 98.2886 165.18 97.9204 165.18 97.4987C165.18 97.0959 165.268 96.7151 165.444 96.3564C165.627 95.9976 165.882 95.6798 166.209 95.4029C166.543 95.1259 166.942 94.9088 167.408 94.7514C167.874 94.5941 168.393 94.5154 168.966 94.5154C169.784 94.5154 170.483 94.6602 171.062 94.9497C171.641 95.2392 172.085 95.6263 172.393 96.1109C172.701 96.5893 172.856 97.1211 172.856 97.7064H171.109C171.109 97.4232 171.024 97.1494 170.854 96.8851C170.69 96.6144 170.448 96.391 170.127 96.2148C169.812 96.0385 169.425 95.9504 168.966 95.9504C168.481 95.9504 168.088 96.026 167.786 96.177C167.49 96.3218 167.273 96.5074 167.134 96.734C167.002 96.9606 166.936 97.1998 166.936 97.4515C166.936 97.6403 166.968 97.8103 167.031 97.9613C167.1 98.1061 167.219 98.2414 167.389 98.3673C167.559 98.4869 167.798 98.6002 168.107 98.7072C168.415 98.8142 168.809 98.9212 169.287 99.0282C170.124 99.217 170.813 99.4436 171.354 99.7079C171.896 99.9722 172.299 100.296 172.563 100.68C172.827 101.064 172.959 101.53 172.959 102.078C172.959 102.524 172.865 102.934 172.676 103.305C172.494 103.676 172.226 103.997 171.874 104.268C171.528 104.532 171.112 104.74 170.628 104.891C170.149 105.036 169.611 105.108 169.013 105.108C168.113 105.108 167.352 104.948 166.728 104.627C166.105 104.306 165.633 103.89 165.312 103.38C164.991 102.871 164.831 102.332 164.831 101.766H166.587C166.612 102.244 166.75 102.625 167.002 102.908C167.254 103.185 167.562 103.384 167.927 103.503C168.292 103.616 168.654 103.673 169.013 103.673C169.491 103.673 169.891 103.61 170.212 103.484C170.539 103.358 170.788 103.185 170.958 102.965C171.128 102.745 171.213 102.493 171.213 102.21Z" fill="#828282"/>
<path d="M182.47 102.559V94.7042H184.226V104.919H182.555L182.47 102.559ZM182.801 100.407L183.527 100.388C183.527 101.067 183.455 101.697 183.31 102.276C183.172 102.849 182.945 103.346 182.631 103.767C182.316 104.189 181.904 104.52 181.394 104.759C180.884 104.992 180.264 105.108 179.534 105.108C179.037 105.108 178.58 105.036 178.165 104.891C177.756 104.746 177.404 104.523 177.108 104.221C176.812 103.919 176.582 103.525 176.419 103.041C176.261 102.556 176.183 101.974 176.183 101.294V94.7042H177.929V101.313C177.929 101.772 177.979 102.153 178.08 102.455C178.187 102.751 178.329 102.987 178.505 103.163C178.687 103.333 178.889 103.453 179.109 103.522C179.336 103.591 179.569 103.626 179.808 103.626C180.55 103.626 181.139 103.484 181.573 103.201C182.008 102.911 182.319 102.524 182.508 102.04C182.703 101.549 182.801 101.004 182.801 100.407Z" fill="#828282"/>
<path d="M189.592 96.734V104.919H187.836V94.7042H189.498L189.592 96.734ZM189.234 99.4247L188.422 99.3963C188.428 98.6977 188.519 98.0526 188.695 97.461C188.872 96.8631 189.133 96.3438 189.479 95.9032C189.825 95.4627 190.256 95.1228 190.772 94.8836C191.289 94.6382 191.886 94.5154 192.566 94.5154C193.045 94.5154 193.485 94.5847 193.888 94.7231C194.291 94.8553 194.64 95.0661 194.936 95.3557C195.232 95.6452 195.461 96.0165 195.625 96.4697C195.789 96.9228 195.87 97.4704 195.87 98.1124V104.919H194.124V98.1974C194.124 97.6624 194.033 97.2344 193.85 96.9134C193.674 96.5924 193.422 96.3595 193.095 96.2148C192.768 96.0637 192.384 95.9882 191.943 95.9882C191.427 95.9882 190.996 96.0795 190.65 96.262C190.304 96.4445 190.027 96.6963 189.819 97.0173C189.611 97.3382 189.46 97.7064 189.366 98.1218C189.278 98.5309 189.234 98.9652 189.234 99.4247ZM195.852 98.4617L194.681 98.8205C194.687 98.2603 194.778 97.7222 194.955 97.2061C195.137 96.69 195.398 96.2305 195.738 95.8277C196.084 95.4249 196.509 95.1071 197.013 94.8742C197.516 94.635 198.092 94.5154 198.74 94.5154C199.288 94.5154 199.773 94.5878 200.194 94.7326C200.622 94.8773 200.981 95.1008 201.271 95.4029C201.566 95.6987 201.79 96.0795 201.941 96.5452C202.092 97.011 202.168 97.5648 202.168 98.2068V104.919H200.412V98.1879C200.412 97.6152 200.32 97.1715 200.138 96.8568C199.962 96.5358 199.71 96.3123 199.382 96.1865C199.061 96.0543 198.678 95.9882 198.231 95.9882C197.847 95.9882 197.507 96.0543 197.211 96.1865C196.915 96.3186 196.667 96.5012 196.465 96.734C196.264 96.9606 196.11 97.2218 196.003 97.5176C195.902 97.8134 195.852 98.1281 195.852 98.4617Z" fill="#828282"/>
<path d="M205.315 99.925V99.7079C205.315 98.9715 205.422 98.2886 205.636 97.6592C205.85 97.0235 206.158 96.4728 206.561 96.0071C206.964 95.535 207.452 95.17 208.025 94.9119C208.597 94.6476 209.239 94.5154 209.951 94.5154C210.668 94.5154 211.313 94.6476 211.886 94.9119C212.465 95.17 212.956 95.535 213.359 96.0071C213.768 96.4728 214.079 97.0235 214.293 97.6592C214.507 98.2886 214.614 98.9715 214.614 99.7079V99.925C214.614 100.661 214.507 101.344 214.293 101.974C214.079 102.603 213.768 103.154 213.359 103.626C212.956 104.092 212.468 104.457 211.895 104.721C211.329 104.979 210.687 105.108 209.969 105.108C209.252 105.108 208.607 104.979 208.034 104.721C207.461 104.457 206.97 104.092 206.561 103.626C206.158 103.154 205.85 102.603 205.636 101.974C205.422 101.344 205.315 100.661 205.315 99.925ZM207.062 99.7079V99.925C207.062 100.435 207.121 100.916 207.241 101.369C207.361 101.816 207.54 102.213 207.779 102.559C208.025 102.905 208.33 103.179 208.695 103.38C209.06 103.576 209.485 103.673 209.969 103.673C210.448 103.673 210.866 103.576 211.225 103.38C211.59 103.179 211.892 102.905 212.131 102.559C212.371 102.213 212.55 101.816 212.67 101.369C212.795 100.916 212.858 100.435 212.858 99.925V99.7079C212.858 99.2044 212.795 98.7292 212.67 98.2823C212.55 97.8292 212.367 97.4295 212.122 97.0833C211.883 96.7309 211.581 96.4539 211.216 96.2525C210.857 96.0511 210.435 95.9504 209.951 95.9504C209.472 95.9504 209.051 96.0511 208.685 96.2525C208.327 96.4539 208.025 96.7309 207.779 97.0833C207.54 97.4295 207.361 97.8292 207.241 98.2823C207.121 98.7292 207.062 99.2044 207.062 99.7079Z" fill="#828282"/>
<path d="M223.719 102.21C223.719 101.958 223.662 101.725 223.549 101.511C223.442 101.291 223.219 101.093 222.879 100.916C222.545 100.734 222.042 100.576 221.368 100.444C220.802 100.325 220.289 100.183 219.829 100.019C219.376 99.8558 218.989 99.6575 218.668 99.4247C218.354 99.1918 218.111 98.918 217.941 98.6033C217.771 98.2886 217.686 97.9204 217.686 97.4987C217.686 97.0959 217.775 96.7151 217.951 96.3564C218.133 95.9976 218.388 95.6798 218.715 95.4029C219.049 95.1259 219.449 94.9088 219.914 94.7514C220.38 94.5941 220.899 94.5154 221.472 94.5154C222.29 94.5154 222.989 94.6602 223.568 94.9497C224.147 95.2392 224.591 95.6263 224.899 96.1109C225.208 96.5893 225.362 97.1211 225.362 97.7064H223.615C223.615 97.4232 223.53 97.1494 223.36 96.8851C223.197 96.6144 222.954 96.391 222.633 96.2148C222.319 96.0385 221.932 95.9504 221.472 95.9504C220.988 95.9504 220.594 96.026 220.292 96.177C219.996 96.3218 219.779 96.5074 219.641 96.734C219.508 96.9606 219.442 97.1998 219.442 97.4515C219.442 97.6403 219.474 97.8103 219.537 97.9613C219.606 98.1061 219.726 98.2414 219.896 98.3673C220.066 98.4869 220.305 98.6002 220.613 98.7072C220.921 98.8142 221.315 98.9212 221.793 99.0282C222.63 99.217 223.319 99.4436 223.861 99.7079C224.402 99.9722 224.805 100.296 225.069 100.68C225.334 101.064 225.466 101.53 225.466 102.078C225.466 102.524 225.371 102.934 225.182 103.305C225 103.676 224.732 103.997 224.38 104.268C224.034 104.532 223.618 104.74 223.134 104.891C222.655 105.036 222.117 105.108 221.519 105.108C220.619 105.108 219.858 104.948 219.235 104.627C218.612 104.306 218.14 103.89 217.819 103.38C217.498 102.871 217.337 102.332 217.337 101.766H219.093C219.118 102.244 219.257 102.625 219.508 102.908C219.76 103.185 220.069 103.384 220.434 103.503C220.799 103.616 221.161 103.673 221.519 103.673C221.998 103.673 222.397 103.61 222.718 103.484C223.046 103.358 223.294 103.185 223.464 102.965C223.634 102.745 223.719 102.493 223.719 102.21Z" fill="#828282"/>
<path d="M235.329 91.1734H237.095L241.598 102.38L246.092 91.1734H247.867L242.278 104.919H240.9L235.329 91.1734ZM234.754 91.1734H236.311L236.566 99.5568V104.919H234.754V91.1734ZM246.876 91.1734H248.433V104.919H246.621V99.5568L246.876 91.1734Z" fill="#828282"/>
<path d="M256.575 105.108C255.864 105.108 255.219 104.988 254.64 104.749C254.067 104.504 253.573 104.161 253.158 103.72C252.749 103.28 252.434 102.757 252.214 102.153C251.993 101.549 251.883 100.888 251.883 100.17V99.774C251.883 98.9432 252.006 98.2037 252.251 97.5554C252.497 96.9008 252.83 96.347 253.252 95.8938C253.674 95.4406 254.152 95.0976 254.687 94.8647C255.222 94.6319 255.776 94.5154 256.349 94.5154C257.079 94.5154 257.708 94.6413 258.237 94.8931C258.772 95.1448 259.209 95.4973 259.549 95.9504C259.889 96.3973 260.141 96.926 260.304 97.5365C260.468 98.1407 260.55 98.8016 260.55 99.5191V100.303H252.922V98.8771H258.803V98.7449C258.778 98.2918 258.684 97.8512 258.52 97.4232C258.363 96.9952 258.111 96.6428 257.765 96.3658C257.419 96.0889 256.947 95.9504 256.349 95.9504C255.952 95.9504 255.587 96.0354 255.253 96.2053C254.92 96.369 254.634 96.6144 254.394 96.9417C254.155 97.269 253.97 97.6687 253.837 98.1407C253.705 98.6128 253.639 99.1572 253.639 99.774V100.17C253.639 100.655 253.705 101.111 253.837 101.539C253.976 101.961 254.174 102.332 254.432 102.653C254.696 102.974 255.014 103.226 255.386 103.409C255.763 103.591 256.191 103.682 256.67 103.682C257.286 103.682 257.809 103.557 258.237 103.305C258.665 103.053 259.039 102.716 259.36 102.295L260.418 103.135C260.197 103.469 259.917 103.786 259.577 104.088C259.238 104.391 258.819 104.636 258.322 104.825C257.831 105.014 257.249 105.108 256.575 105.108ZM255.376 93.1937L257.208 90.4181H259.313L256.783 93.1937H255.376Z" fill="#828282"/>
<path d="M269.994 102.937V90.4181H271.75V104.919H270.145L269.994 102.937ZM263.121 99.925V99.7268C263.121 98.9463 263.216 98.2383 263.405 97.6026C263.6 96.9606 263.874 96.4099 264.226 95.9504C264.585 95.491 265.01 95.1385 265.501 94.8931C265.998 94.6413 266.552 94.5154 267.162 94.5154C267.804 94.5154 268.364 94.6287 268.843 94.8553C269.327 95.0756 269.736 95.3997 270.07 95.8277C270.41 96.2494 270.677 96.7592 270.872 97.3571C271.068 97.955 271.203 98.6316 271.278 99.3869V100.255C271.209 101.004 271.074 101.678 270.872 102.276C270.677 102.874 270.41 103.384 270.07 103.805C269.736 104.227 269.327 104.551 268.843 104.778C268.358 104.998 267.792 105.108 267.143 105.108C266.545 105.108 265.998 104.979 265.501 104.721C265.01 104.463 264.585 104.101 264.226 103.635C263.874 103.17 263.6 102.622 263.405 101.993C263.216 101.357 263.121 100.668 263.121 99.925ZM264.877 99.7268V99.925C264.877 100.435 264.928 100.913 265.029 101.36C265.136 101.807 265.299 102.2 265.519 102.54C265.74 102.88 266.02 103.148 266.36 103.343C266.7 103.531 267.106 103.626 267.578 103.626C268.157 103.626 268.632 103.503 269.003 103.258C269.381 103.012 269.683 102.688 269.909 102.285C270.136 101.882 270.312 101.445 270.438 100.973V98.6977C270.363 98.3516 270.252 98.018 270.108 97.697C269.969 97.3697 269.787 97.0802 269.56 96.8284C269.34 96.5704 269.066 96.3658 268.739 96.2148C268.418 96.0637 268.037 95.9882 267.596 95.9882C267.118 95.9882 266.706 96.0889 266.36 96.2903C266.02 96.4854 265.74 96.7561 265.519 97.1022C265.299 97.4421 265.136 97.8386 265.029 98.2918C264.928 98.7386 264.877 99.217 264.877 99.7268Z" fill="#828282"/>
<path d="M277.334 94.7042V104.919H275.578V94.7042H277.334ZM275.446 91.9947C275.446 91.7115 275.531 91.4723 275.7 91.2772C275.877 91.0821 276.135 90.9845 276.475 90.9845C276.808 90.9845 277.063 91.0821 277.239 91.2772C277.422 91.4723 277.513 91.7115 277.513 91.9947C277.513 92.2654 277.422 92.4982 277.239 92.6933C277.063 92.8822 276.808 92.9766 276.475 92.9766C276.135 92.9766 275.877 92.8822 275.7 92.6933C275.531 92.4982 275.446 92.2654 275.446 91.9947Z" fill="#828282"/>
<path d="M285.192 103.673C285.608 103.673 285.992 103.588 286.344 103.418C286.697 103.248 286.986 103.015 287.213 102.72C287.439 102.417 287.568 102.074 287.6 101.69H289.261C289.23 102.295 289.025 102.858 288.648 103.38C288.276 103.896 287.789 104.315 287.184 104.636C286.58 104.951 285.916 105.108 285.192 105.108C284.424 105.108 283.754 104.973 283.181 104.702C282.615 104.431 282.143 104.06 281.765 103.588C281.394 103.116 281.114 102.575 280.925 101.964C280.743 101.347 280.651 100.696 280.651 100.01V99.6135C280.651 98.9275 280.743 98.2792 280.925 97.6687C281.114 97.0519 281.394 96.5074 281.765 96.0354C282.143 95.5634 282.615 95.192 283.181 94.9214C283.754 94.6507 284.424 94.5154 285.192 94.5154C285.992 94.5154 286.69 94.6791 287.288 95.0063C287.886 95.3273 288.355 95.7679 288.695 96.3281C289.041 96.8819 289.23 97.5113 289.261 98.2162H287.6C287.568 97.7945 287.449 97.4138 287.241 97.0739C287.04 96.734 286.763 96.4634 286.41 96.262C286.064 96.0543 285.658 95.9504 285.192 95.9504C284.657 95.9504 284.207 96.0574 283.842 96.2714C283.484 96.4791 283.197 96.7623 282.983 97.1211C282.775 97.4736 282.624 97.8669 282.53 98.3012C282.442 98.7292 282.398 99.1666 282.398 99.6135V100.01C282.398 100.457 282.442 100.897 282.53 101.332C282.618 101.766 282.766 102.159 282.974 102.512C283.188 102.864 283.474 103.148 283.833 103.362C284.198 103.569 284.651 103.673 285.192 103.673Z" fill="#828282"/>
<path d="M291.729 99.925V99.7079C291.729 98.9715 291.836 98.2886 292.05 97.6592C292.264 97.0235 292.573 96.4728 292.975 96.0071C293.378 95.535 293.866 95.17 294.439 94.9119C295.011 94.6476 295.653 94.5154 296.365 94.5154C297.082 94.5154 297.727 94.6476 298.3 94.9119C298.879 95.17 299.37 95.535 299.773 96.0071C300.182 96.4728 300.493 97.0235 300.707 97.6592C300.921 98.2886 301.028 98.9715 301.028 99.7079V99.925C301.028 100.661 300.921 101.344 300.707 101.974C300.493 102.603 300.182 103.154 299.773 103.626C299.37 104.092 298.882 104.457 298.309 104.721C297.743 104.979 297.101 105.108 296.384 105.108C295.666 105.108 295.021 104.979 294.448 104.721C293.875 104.457 293.384 104.092 292.975 103.626C292.573 103.154 292.264 102.603 292.05 101.974C291.836 101.344 291.729 100.661 291.729 99.925ZM293.476 99.7079V99.925C293.476 100.435 293.536 100.916 293.655 101.369C293.775 101.816 293.954 102.213 294.193 102.559C294.439 102.905 294.744 103.179 295.109 103.38C295.474 103.576 295.899 103.673 296.384 103.673C296.862 103.673 297.28 103.576 297.639 103.38C298.004 103.179 298.306 102.905 298.545 102.559C298.785 102.213 298.964 101.816 299.084 101.369C299.209 100.916 299.272 100.435 299.272 99.925V99.7079C299.272 99.2044 299.209 98.7292 299.084 98.2823C298.964 97.8292 298.782 97.4295 298.536 97.0833C298.297 96.7309 297.995 96.4539 297.63 96.2525C297.271 96.0511 296.849 95.9504 296.365 95.9504C295.886 95.9504 295.465 96.0511 295.1 96.2525C294.741 96.4539 294.439 96.7309 294.193 97.0833C293.954 97.4295 293.775 97.8292 293.655 98.2823C293.536 98.7292 293.476 99.2044 293.476 99.7079Z" fill="#828282"/>
<path d="M310.133 102.21C310.133 101.958 310.077 101.725 309.963 101.511C309.856 101.291 309.633 101.093 309.293 100.916C308.959 100.734 308.456 100.576 307.782 100.444C307.216 100.325 306.703 100.183 306.244 100.019C305.79 99.8558 305.403 99.6575 305.082 99.4247C304.768 99.1918 304.525 98.918 304.355 98.6033C304.185 98.2886 304.1 97.9204 304.1 97.4987C304.1 97.0959 304.189 96.7151 304.365 96.3564C304.547 95.9976 304.802 95.6798 305.13 95.4029C305.463 95.1259 305.863 94.9088 306.329 94.7514C306.794 94.5941 307.314 94.5154 307.886 94.5154C308.704 94.5154 309.403 94.6602 309.982 94.9497C310.561 95.2392 311.005 95.6263 311.313 96.1109C311.622 96.5893 311.776 97.1211 311.776 97.7064H310.029C310.029 97.4232 309.944 97.1494 309.774 96.8851C309.611 96.6144 309.368 96.391 309.048 96.2148C308.733 96.0385 308.346 95.9504 307.886 95.9504C307.402 95.9504 307.008 96.026 306.706 96.177C306.41 96.3218 306.193 96.5074 306.055 96.734C305.923 96.9606 305.856 97.1998 305.856 97.4515C305.856 97.6403 305.888 97.8103 305.951 97.9613C306.02 98.1061 306.14 98.2414 306.31 98.3673C306.48 98.4869 306.719 98.6002 307.027 98.7072C307.336 98.8142 307.729 98.9212 308.207 99.0282C309.044 99.217 309.734 99.4436 310.275 99.7079C310.816 99.9722 311.219 100.296 311.483 100.68C311.748 101.064 311.88 101.53 311.88 102.078C311.88 102.524 311.785 102.934 311.597 103.305C311.414 103.676 311.147 103.997 310.794 104.268C310.448 104.532 310.032 104.74 309.548 104.891C309.07 105.036 308.531 105.108 307.933 105.108C307.033 105.108 306.272 104.948 305.649 104.627C305.026 104.306 304.554 103.89 304.233 103.38C303.912 102.871 303.751 102.332 303.751 101.766H305.507C305.532 102.244 305.671 102.625 305.923 102.908C306.174 103.185 306.483 103.384 306.848 103.503C307.213 103.616 307.575 103.673 307.933 103.673C308.412 103.673 308.811 103.61 309.132 103.484C309.46 103.358 309.708 103.185 309.878 102.965C310.048 102.745 310.133 102.493 310.133 102.21Z" fill="#828282"/>
</svg>
