<svg width="395" height="116" viewBox="0 0 395 116" fill="none" xmlns="http://www.w3.org/2000/svg">
<path d="M127.659 51.5547L86.1537 55.703L46.7946 59.6893L59.8154 111.469C60.2637 113.77 62.1094 115.281 64.542 115.281C65.827 115.281 66.9987 114.797 67.8844 114L131.276 60.4656C132.442 59.5503 133.191 58.1282 133.191 56.5313C133.191 53.7699 130.421 51.5547 127.659 51.5547Z" fill="#3EE4FF"/>
<path d="M72.7529 3.78127L86.1537 55.703L5.69822 63.8515C2.9368 63.8515 0.479004 61.6468 0.479004 58.8853C0.479004 57.4454 1.08768 56.1476 2.06178 55.2353L2.05766 55.2266C29.3467 32.5 65.0949 2.19345 65.0949 2.19345C65.0949 2.19345 66.8099 0.875031 68.1749 0.875031C70.4192 0.875031 72.1339 1.5621 72.7529 3.78127Z" fill="#00FFCE"/>
<path d="M86.1592 55.707C83.4404 55.9726 46.792 59.6835 46.792 59.6835L47.7529 63.5C47.7529 63.5 86.1592 55.9453 86.1592 55.707Z" fill="#1F7565"/>
<path d="M147.779 79.3982C147.233 79.3982 146.768 79.2342 146.385 78.9062C146.057 78.5236 145.893 78.0589 145.893 77.5122V74.6422C145.893 74.1502 146.003 73.6856 146.221 73.2482C146.495 72.8109 146.768 72.4009 147.041 72.0182L169.673 43.2362H148.517C147.971 43.2362 147.506 43.0722 147.123 42.7442C146.795 42.4162 146.631 41.9516 146.631 41.3502V38.6442C146.631 38.0976 146.795 37.6602 147.123 37.3322C147.506 36.9496 147.971 36.7582 148.517 36.7582C159.917 36.7582 166.309 36.7582 177.709 36.7582C178.256 36.7582 178.693 36.9496 179.021 37.3322C179.404 37.6602 179.595 38.0976 179.595 38.6442C179.595 39.8291 179.595 40.4934 179.595 41.6782C179.595 42.1702 179.459 42.6076 179.185 42.9902C178.967 43.3729 178.721 43.7829 178.447 44.2202L156.061 72.9202H178.283C178.83 72.9202 179.267 73.0842 179.595 73.4122C179.978 73.7402 180.169 74.2049 180.169 74.8062V77.5122C180.169 78.0589 179.978 78.5236 179.595 78.9062C179.267 79.2342 178.83 79.3982 178.283 79.3982H147.779Z" fill="#040F23"/>
<path d="M204.714 80.2182C199.083 80.2182 194.6 78.4962 191.266 75.0522C187.931 71.5536 186.1 66.7976 185.772 60.7842C185.717 60.0736 185.69 59.1716 185.69 58.0782C185.69 56.9302 185.717 56.0009 185.772 55.2902C185.99 51.4089 186.892 48.0196 188.478 45.1222C190.063 42.1702 192.222 39.9016 194.956 38.3162C197.744 36.7309 200.996 35.9382 204.714 35.9382C208.868 35.9382 212.34 36.8129 215.128 38.5622C217.97 40.3116 220.13 42.7989 221.606 46.0242C223.082 49.2496 223.82 53.0216 223.82 57.3402V58.7342C223.82 59.3356 223.628 59.8002 223.246 60.1282C222.918 60.4562 222.48 60.6202 221.934 60.6202H193.562C193.562 60.6749 193.562 60.7842 193.562 60.9482C193.562 61.1122 193.562 61.2489 193.562 61.3582C193.671 63.5996 194.163 65.7042 195.038 67.6722C195.912 69.5856 197.17 71.1436 198.81 72.3462C200.45 73.5489 202.418 74.1502 204.714 74.1502C206.682 74.1502 208.322 73.8496 209.634 73.2482C210.946 72.6469 212.012 71.9909 212.832 71.2802C213.652 70.5149 214.198 69.9409 214.472 69.5582C214.964 68.8476 215.346 68.4376 215.62 68.3282C215.893 68.1642 216.33 68.0822 216.932 68.0822H220.868C221.414 68.0822 221.852 68.2462 222.18 68.5742C222.562 68.8476 222.726 69.2576 222.672 69.8042C222.617 70.6242 222.18 71.6356 221.36 72.8382C220.54 73.9862 219.364 75.1342 217.834 76.2822C216.303 77.4302 214.444 78.3869 212.258 79.1522C210.071 79.8629 207.556 80.2182 204.714 80.2182ZM193.562 54.9622H216.03V54.7162C216.03 52.2562 215.565 50.0696 214.636 48.1562C213.761 46.2429 212.476 44.7396 210.782 43.6462C209.087 42.4982 207.064 41.9242 204.714 41.9242C202.363 41.9242 200.34 42.4982 198.646 43.6462C197.006 44.7396 195.748 46.2429 194.874 48.1562C193.999 50.0696 193.562 52.2562 193.562 54.7162V54.9622Z" fill="#040F23"/>
<path d="M231.949 79.3982C231.403 79.3982 230.938 79.2342 230.555 78.9062C230.227 78.5236 230.063 78.0589 230.063 77.5122V38.6442C230.063 38.0976 230.227 37.6602 230.555 37.3322C230.938 36.9496 231.403 36.7582 231.949 36.7582H235.803C236.35 36.7582 236.787 36.9496 237.115 37.3322C237.498 37.6602 237.689 38.0976 237.689 38.6442V42.2522C239.111 40.3936 240.887 38.8902 243.019 37.7422C245.206 36.5396 247.994 35.9382 251.383 35.9382C254.937 35.9382 257.943 36.7309 260.403 38.3162C262.918 39.8469 264.804 42.0062 266.061 44.7942C267.319 47.5276 267.947 50.7256 267.947 54.3882V77.5122C267.947 78.0589 267.783 78.5236 267.455 78.9062C267.127 79.2342 266.69 79.3982 266.143 79.3982H262.043C261.497 79.3982 261.032 79.2342 260.649 78.9062C260.321 78.5236 260.157 78.0589 260.157 77.5122V54.7982C260.157 50.9716 259.228 47.9922 257.369 45.8602C255.511 43.6736 252.777 42.5802 249.169 42.5802C245.78 42.5802 243.047 43.6736 240.969 45.8602C238.947 47.9922 237.935 50.9716 237.935 54.7982V77.5122C237.935 78.0589 237.744 78.5236 237.361 78.9062C237.033 79.2342 236.596 79.3982 236.049 79.3982H231.949Z" fill="#040F23"/>
<path d="M293.431 80.2182C289.277 80.2182 285.805 79.4256 283.017 77.8402C280.229 76.2549 278.097 74.0682 276.621 71.2802C275.145 68.4376 274.325 65.2122 274.161 61.6042C274.107 60.6749 274.079 59.4996 274.079 58.0782C274.079 56.6022 274.107 55.4269 274.161 54.5522C274.325 50.8896 275.145 47.6642 276.621 44.8762C278.152 42.0882 280.311 39.9016 283.099 38.3162C285.887 36.7309 289.331 35.9382 293.431 35.9382C297.531 35.9382 300.975 36.7309 303.763 38.3162C306.551 39.9016 308.683 42.0882 310.159 44.8762C311.69 47.6642 312.537 50.8896 312.701 54.5522C312.756 55.4269 312.783 56.6022 312.783 58.0782C312.783 59.4996 312.756 60.6749 312.701 61.6042C312.537 65.2122 311.717 68.4376 310.241 71.2802C308.765 74.0682 306.633 76.2549 303.845 77.8402C301.057 79.4256 297.586 80.2182 293.431 80.2182ZM293.431 73.9042C296.821 73.9042 299.527 72.8382 301.549 70.7062C303.572 68.5196 304.665 65.3489 304.829 61.1942C304.884 60.3742 304.911 59.3356 304.911 58.0782C304.911 56.8209 304.884 55.7822 304.829 54.9622C304.665 50.8076 303.572 47.6642 301.549 45.5322C299.527 43.3456 296.821 42.2522 293.431 42.2522C290.042 42.2522 287.309 43.3456 285.231 45.5322C283.209 47.6642 282.143 50.8076 282.033 54.9622C281.979 55.7822 281.951 56.8209 281.951 58.0782C281.951 59.3356 281.979 60.3742 282.033 61.1942C282.143 65.3489 283.209 68.5196 285.231 70.7062C287.309 72.8382 290.042 73.9042 293.431 73.9042Z" fill="#040F23"/>
<path d="M333.459 79.3982C332.639 79.3982 331.983 79.2069 331.491 78.8242C331.054 78.4416 330.699 77.9496 330.425 77.3482L315.255 39.3002C315.146 39.0269 315.091 38.7536 315.091 38.4802C315.091 37.9882 315.255 37.5782 315.583 37.2502C315.911 36.9222 316.321 36.7582 316.813 36.7582H320.749C321.351 36.7582 321.815 36.9222 322.143 37.2502C322.471 37.5782 322.663 37.8789 322.717 38.1522L335.263 70.4602L347.727 38.1522C347.837 37.8789 348.028 37.5782 348.301 37.2502C348.629 36.9222 349.094 36.7582 349.695 36.7582H353.713C354.151 36.7582 354.533 36.9222 354.861 37.2502C355.244 37.5782 355.435 37.9882 355.435 38.4802C355.435 38.7536 355.381 39.0269 355.271 39.3002L340.019 77.3482C339.801 77.9496 339.445 78.4416 338.953 78.8242C338.516 79.2069 337.86 79.3982 336.985 79.3982H333.459Z" fill="#040F23"/>
<path d="M372.21 80.2182C369.477 80.2182 366.989 79.6716 364.748 78.5782C362.507 77.4849 360.703 76.0089 359.336 74.1502C357.969 72.2916 357.286 70.1869 357.286 67.8362C357.286 64.0642 358.817 61.0576 361.878 58.8162C364.939 56.5749 368.93 55.0989 373.85 54.3882L386.068 52.6662V50.2882C386.068 47.6642 385.303 45.6142 383.772 44.1382C382.296 42.6622 379.863 41.9242 376.474 41.9242C374.014 41.9242 372.019 42.4162 370.488 43.4002C369.012 44.3842 367.973 45.6416 367.372 47.1722C367.044 47.9922 366.47 48.4022 365.65 48.4022H361.96C361.359 48.4022 360.894 48.2382 360.566 47.9102C360.293 47.5276 360.156 47.0902 360.156 46.5982C360.156 45.7782 360.457 44.7669 361.058 43.5642C361.714 42.3616 362.698 41.1862 364.01 40.0382C365.322 38.8902 366.989 37.9336 369.012 37.1682C371.089 36.3482 373.604 35.9382 376.556 35.9382C379.836 35.9382 382.597 36.3756 384.838 37.2502C387.079 38.0702 388.829 39.1909 390.086 40.6122C391.398 42.0336 392.327 43.6462 392.874 45.4502C393.475 47.2542 393.776 49.0856 393.776 50.9442V77.5122C393.776 78.0589 393.585 78.5236 393.202 78.9062C392.874 79.2342 392.437 79.3982 391.89 79.3982H388.118C387.517 79.3982 387.052 79.2342 386.724 78.9062C386.396 78.5236 386.232 78.0589 386.232 77.5122V73.9862C385.521 74.9702 384.565 75.9542 383.362 76.9382C382.159 77.8676 380.656 78.6602 378.852 79.3162C377.048 79.9176 374.834 80.2182 372.21 80.2182ZM373.932 74.0682C376.173 74.0682 378.223 73.6036 380.082 72.6742C381.941 71.6902 383.389 70.1869 384.428 68.1642C385.521 66.1416 386.068 63.5996 386.068 60.5382V58.2422L376.556 59.6362C372.675 60.1829 369.75 61.1122 367.782 62.4242C365.814 63.6816 364.83 65.2942 364.83 67.2622C364.83 68.7929 365.267 70.0776 366.142 71.1162C367.071 72.1002 368.219 72.8382 369.586 73.3302C371.007 73.8222 372.456 74.0682 373.932 74.0682Z" fill="#040F23"/>
<path d="M147.779 79.3982C147.233 79.3982 146.768 79.2342 146.385 78.9062C146.057 78.5236 145.893 78.0589 145.893 77.5122V74.6422C145.893 74.1502 146.003 73.6856 146.221 73.2482C146.495 72.8109 146.768 72.4009 147.041 72.0182L169.673 43.2362H148.517C147.971 43.2362 147.506 43.0722 147.123 42.7442C146.795 42.4162 146.631 41.9516 146.631 41.3502V38.6442C146.631 38.0976 146.795 37.6602 147.123 37.3322C147.506 36.9496 147.971 36.7582 148.517 36.7582C159.917 36.7582 166.309 36.7582 177.709 36.7582C178.256 36.7582 178.693 36.9496 179.021 37.3322C179.404 37.6602 179.595 38.0976 179.595 38.6442C179.595 39.8291 179.595 40.4934 179.595 41.6782C179.595 42.1702 179.459 42.6076 179.185 42.9902C178.967 43.3729 178.721 43.7829 178.447 44.2202L156.061 72.9202H178.283C178.83 72.9202 179.267 73.0842 179.595 73.4122C179.978 73.7402 180.169 74.2049 180.169 74.8062V77.5122C180.169 78.0589 179.978 78.5236 179.595 78.9062C179.267 79.2342 178.83 79.3982 178.283 79.3982H147.779Z" stroke="#040F23"/>
<path d="M204.714 80.2182C199.083 80.2182 194.6 78.4962 191.266 75.0522C187.931 71.5536 186.1 66.7976 185.772 60.7842C185.717 60.0736 185.69 59.1716 185.69 58.0782C185.69 56.9302 185.717 56.0009 185.772 55.2902C185.99 51.4089 186.892 48.0196 188.478 45.1222C190.063 42.1702 192.222 39.9016 194.956 38.3162C197.744 36.7309 200.996 35.9382 204.714 35.9382C208.868 35.9382 212.34 36.8129 215.128 38.5622C217.97 40.3116 220.13 42.7989 221.606 46.0242C223.082 49.2496 223.82 53.0216 223.82 57.3402V58.7342C223.82 59.3356 223.628 59.8002 223.246 60.1282C222.918 60.4562 222.48 60.6202 221.934 60.6202H193.562C193.562 60.6749 193.562 60.7842 193.562 60.9482C193.562 61.1122 193.562 61.2489 193.562 61.3582C193.671 63.5996 194.163 65.7042 195.038 67.6722C195.912 69.5856 197.17 71.1436 198.81 72.3462C200.45 73.5489 202.418 74.1502 204.714 74.1502C206.682 74.1502 208.322 73.8496 209.634 73.2482C210.946 72.6469 212.012 71.9909 212.832 71.2802C213.652 70.5149 214.198 69.9409 214.472 69.5582C214.964 68.8476 215.346 68.4376 215.62 68.3282C215.893 68.1642 216.33 68.0822 216.932 68.0822H220.868C221.414 68.0822 221.852 68.2462 222.18 68.5742C222.562 68.8476 222.726 69.2576 222.672 69.8042C222.617 70.6242 222.18 71.6356 221.36 72.8382C220.54 73.9862 219.364 75.1342 217.834 76.2822C216.303 77.4302 214.444 78.3869 212.258 79.1522C210.071 79.8629 207.556 80.2182 204.714 80.2182ZM193.562 54.9622H216.03V54.7162C216.03 52.2562 215.565 50.0696 214.636 48.1562C213.761 46.2429 212.476 44.7396 210.782 43.6462C209.087 42.4982 207.064 41.9242 204.714 41.9242C202.363 41.9242 200.34 42.4982 198.646 43.6462C197.006 44.7396 195.748 46.2429 194.874 48.1562C193.999 50.0696 193.562 52.2562 193.562 54.7162V54.9622Z" stroke="#040F23"/>
<path d="M231.949 79.3982C231.403 79.3982 230.938 79.2342 230.555 78.9062C230.227 78.5236 230.063 78.0589 230.063 77.5122V38.6442C230.063 38.0976 230.227 37.6602 230.555 37.3322C230.938 36.9496 231.403 36.7582 231.949 36.7582H235.803C236.35 36.7582 236.787 36.9496 237.115 37.3322C237.498 37.6602 237.689 38.0976 237.689 38.6442V42.2522C239.111 40.3936 240.887 38.8902 243.019 37.7422C245.206 36.5396 247.994 35.9382 251.383 35.9382C254.937 35.9382 257.943 36.7309 260.403 38.3162C262.918 39.8469 264.804 42.0062 266.061 44.7942C267.319 47.5276 267.947 50.7256 267.947 54.3882V77.5122C267.947 78.0589 267.783 78.5236 267.455 78.9062C267.127 79.2342 266.69 79.3982 266.143 79.3982H262.043C261.497 79.3982 261.032 79.2342 260.649 78.9062C260.321 78.5236 260.157 78.0589 260.157 77.5122V54.7982C260.157 50.9716 259.228 47.9922 257.369 45.8602C255.511 43.6736 252.777 42.5802 249.169 42.5802C245.78 42.5802 243.047 43.6736 240.969 45.8602C238.947 47.9922 237.935 50.9716 237.935 54.7982V77.5122C237.935 78.0589 237.744 78.5236 237.361 78.9062C237.033 79.2342 236.596 79.3982 236.049 79.3982H231.949Z" stroke="#040F23"/>
<path d="M293.431 80.2182C289.277 80.2182 285.805 79.4256 283.017 77.8402C280.229 76.2549 278.097 74.0682 276.621 71.2802C275.145 68.4376 274.325 65.2122 274.161 61.6042C274.107 60.6749 274.079 59.4996 274.079 58.0782C274.079 56.6022 274.107 55.4269 274.161 54.5522C274.325 50.8896 275.145 47.6642 276.621 44.8762C278.152 42.0882 280.311 39.9016 283.099 38.3162C285.887 36.7309 289.331 35.9382 293.431 35.9382C297.531 35.9382 300.975 36.7309 303.763 38.3162C306.551 39.9016 308.683 42.0882 310.159 44.8762C311.69 47.6642 312.537 50.8896 312.701 54.5522C312.756 55.4269 312.783 56.6022 312.783 58.0782C312.783 59.4996 312.756 60.6749 312.701 61.6042C312.537 65.2122 311.717 68.4376 310.241 71.2802C308.765 74.0682 306.633 76.2549 303.845 77.8402C301.057 79.4256 297.586 80.2182 293.431 80.2182ZM293.431 73.9042C296.821 73.9042 299.527 72.8382 301.549 70.7062C303.572 68.5196 304.665 65.3489 304.829 61.1942C304.884 60.3742 304.911 59.3356 304.911 58.0782C304.911 56.8209 304.884 55.7822 304.829 54.9622C304.665 50.8076 303.572 47.6642 301.549 45.5322C299.527 43.3456 296.821 42.2522 293.431 42.2522C290.042 42.2522 287.309 43.3456 285.231 45.5322C283.209 47.6642 282.143 50.8076 282.033 54.9622C281.979 55.7822 281.951 56.8209 281.951 58.0782C281.951 59.3356 281.979 60.3742 282.033 61.1942C282.143 65.3489 283.209 68.5196 285.231 70.7062C287.309 72.8382 290.042 73.9042 293.431 73.9042Z" stroke="#040F23"/>
<path d="M333.459 79.3982C332.639 79.3982 331.983 79.2069 331.491 78.8242C331.054 78.4416 330.699 77.9496 330.425 77.3482L315.255 39.3002C315.146 39.0269 315.091 38.7536 315.091 38.4802C315.091 37.9882 315.255 37.5782 315.583 37.2502C315.911 36.9222 316.321 36.7582 316.813 36.7582H320.749C321.351 36.7582 321.815 36.9222 322.143 37.2502C322.471 37.5782 322.663 37.8789 322.717 38.1522L335.263 70.4602L347.727 38.1522C347.837 37.8789 348.028 37.5782 348.301 37.2502C348.629 36.9222 349.094 36.7582 349.695 36.7582H353.713C354.151 36.7582 354.533 36.9222 354.861 37.2502C355.244 37.5782 355.435 37.9882 355.435 38.4802C355.435 38.7536 355.381 39.0269 355.271 39.3002L340.019 77.3482C339.801 77.9496 339.445 78.4416 338.953 78.8242C338.516 79.2069 337.86 79.3982 336.985 79.3982H333.459Z" stroke="#040F23"/>
<path d="M372.21 80.2182C369.477 80.2182 366.989 79.6716 364.748 78.5782C362.507 77.4849 360.703 76.0089 359.336 74.1502C357.969 72.2916 357.286 70.1869 357.286 67.8362C357.286 64.0642 358.817 61.0576 361.878 58.8162C364.939 56.5749 368.93 55.0989 373.85 54.3882L386.068 52.6662V50.2882C386.068 47.6642 385.303 45.6142 383.772 44.1382C382.296 42.6622 379.863 41.9242 376.474 41.9242C374.014 41.9242 372.019 42.4162 370.488 43.4002C369.012 44.3842 367.973 45.6416 367.372 47.1722C367.044 47.9922 366.47 48.4022 365.65 48.4022H361.96C361.359 48.4022 360.894 48.2382 360.566 47.9102C360.293 47.5276 360.156 47.0902 360.156 46.5982C360.156 45.7782 360.457 44.7669 361.058 43.5642C361.714 42.3616 362.698 41.1862 364.01 40.0382C365.322 38.8902 366.989 37.9336 369.012 37.1682C371.089 36.3482 373.604 35.9382 376.556 35.9382C379.836 35.9382 382.597 36.3756 384.838 37.2502C387.079 38.0702 388.829 39.1909 390.086 40.6122C391.398 42.0336 392.327 43.6462 392.874 45.4502C393.475 47.2542 393.776 49.0856 393.776 50.9442V77.5122C393.776 78.0589 393.585 78.5236 393.202 78.9062C392.874 79.2342 392.437 79.3982 391.89 79.3982H388.118C387.517 79.3982 387.052 79.2342 386.724 78.9062C386.396 78.5236 386.232 78.0589 386.232 77.5122V73.9862C385.521 74.9702 384.565 75.9542 383.362 76.9382C382.159 77.8676 380.656 78.6602 378.852 79.3162C377.048 79.9176 374.834 80.2182 372.21 80.2182ZM373.932 74.0682C376.173 74.0682 378.223 73.6036 380.082 72.6742C381.941 71.6902 383.389 70.1869 384.428 68.1642C385.521 66.1416 386.068 63.5996 386.068 60.5382V58.2422L376.556 59.6362C372.675 60.1829 369.75 61.1122 367.782 62.4242C365.814 63.6816 364.83 65.2942 364.83 67.2622C364.83 68.7929 365.267 70.0776 366.142 71.1162C367.071 72.1002 368.219 72.8382 369.586 73.3302C371.007 73.8222 372.456 74.0682 373.932 74.0682Z" stroke="#040F23"/>
</svg>
